# xmcd
#
# Track frame offsets: 
#        150
#        14183
#        29736
#        47702
#        70043
#        88668
#        110582
#        123423
#        139032
#        152240
#
# Disc length: 2290 seconds
#
# Revision: 0
# Processed by: cddbd v1.5.2PL0 Copyright (c) Steve Scherf et al.
# Submitted via: ExactAudioCopyFreeDBPlugin 1.0
#
DISCID=8e08f00a
DTITLE=Kate Russell - Powerful Stuff
DYEAR=2006
DGENRE=Country
TTITLE0=Powerful Stuff
TTITLE1=Stranded
TTITLE2=What Is Love
TTITLE3=Better Days
TTITLE4=Open My Eyes
TTITLE5=Talk Is Cheap
TTITLE6=Bittersweet
TTITLE7=Vanish Into The Night
TTITLE8=Faster Than The Cat
TTITLE9=Outback Shuffle
EXTD=
EXTT0=
EXTT1=
EXTT2=
EXTT3=
EXTT4=
EXTT5=
EXTT6=
EXTT7=
EXTT8=
EXTT9=
PLAYORDER=
